inDegrees=no
num_controls=7
num_derivatives=13
num_iterations=160
num_multipliers=7
num_parameters=0
num_slacks=7
num_states=26
objective=5.272404
objective_accelerations=0.574435
objective_balance=0.061308
objective_effort=0.542456
objective_height=4.046461
objective_ligament=0.047742
solver_duration=1696.916116
status=Solve_Succeeded
success=true
DataType=double
version=3
OpenSimVersion=4.4-2022-07-23-0e9fedc
endheader
time	/jointset/ground_pelvis/pelvis_tilt/value	/jointset/ground_pelvis/pelvis_tx/value	/jointset/ground_pelvis/pelvis_ty/value	/jointset/hip_l/hip_flexion_l/value	/jointset/hip_l/hip_adduction_l/value	/jointset/hip_l/hip_rotation_l/value	/jointset/back/lumbar_extension/value	/jointset/patellofemoral_l/patellar_flexion_l/value	/jointset/knee_l/knee_flexion_l/value	/jointset/knee_l/knee_adduction_l/value	/jointset/knee_l/knee_rotation_l/value	/jointset/ankle_l/ankle_angle_l/value	/jointset/subtalar_l/subtalar_angle_l/value	/jointset/ground_pelvis/pelvis_tilt/speed	/jointset/ground_pelvis/pelvis_tx/speed	/jointset/ground_pelvis/pelvis_ty/speed	/jointset/hip_l/hip_flexion_l/speed	/jointset/hip_l/hip_adduction_l/speed	/jointset/hip_l/hip_rotation_l/speed	/jointset/back/lumbar_extension/speed	/jointset/patellofemoral_l/patellar_flexion_l/speed	/jointset/knee_l/knee_flexion_l/speed	/jointset/knee_l/knee_adduction_l/speed	/jointset/knee_l/knee_rotation_l/speed	/jointset/ankle_l/ankle_angle_l/speed	/jointset/subtalar_l/subtalar_angle_l/speed	/forceset/tau_hip_flexion_l	/forceset/tau_hip_adduction_l	/forceset/tau_hip_rotation_l	/forceset/tau_knee_flexion_l	/forceset/tau_ankle_angle_l	/forceset/tau_subtalar_angle_l	/forceset/tau_lumbar_extension	lambda_cid13_p0	lambda_cid13_p1	lambda_cid13_p2	lambda_cid13_p3	lambda_cid13_p4	lambda_cid13_p5	lambda_cid14_p0	/jointset/ground_pelvis/pelvis_tilt/accel	/jointset/ground_pelvis/pelvis_tx/accel	/jointset/ground_pelvis/pelvis_ty/accel	/jointset/hip_l/hip_flexion_l/accel	/jointset/hip_l/hip_adduction_l/accel	/jointset/hip_l/hip_rotation_l/accel	/jointset/back/lumbar_extension/accel	/jointset/patellofemoral_l/patellar_flexion_l/accel	/jointset/knee_l/knee_flexion_l/accel	/jointset/knee_l/knee_adduction_l/accel	/jointset/knee_l/knee_rotation_l/accel	/jointset/ankle_l/ankle_angle_l/accel	/jointset/subtalar_l/subtalar_angle_l/accel	gamma_cid13_p0	gamma_cid13_p1	gamma_cid13_p2	gamma_cid13_p3	gamma_cid13_p4	gamma_cid13_p5	gamma_cid14_p0
0.5	-0.0765477933535946	-0.02137315439802388	0.7811622972549453	0.9882688006670335	-0.3220006920884828	-0.06488290090690205	-0.7958952246663351	1.07939769444117	1.079397694441127	-0.04378745899361215	-0.1745324780452675	0.249127641889734	0.0621515284148287	-0.06612802918522927	-0.09513620777175182	-0.5331483022750582	1.749879704534314	-0.02492744356237677	0.5308201142702522	-0.8276901146712546	2.191229058244947	2.191229058245209	0.3147876360575203	-2.635718885047673e-05	0.6620912224136402	0.2444881920181918	-0.2619226685335206	0.02319078851384147	-0.008410301273252464	-0.2808878954172657	0.03733327284721727	0.04508259837125293	0.3232923654413884	-30.79124022619545	-15.24060407392308	3.177732343869339	-7.928737856929864	-695.199092787556	-74.75622837521622	-3.779140107694872	0.3601513796689008	0.6914838390246412	-0.3273750809344995	-1.594660105866859	0.1512223340484241	-0.7124478616561811	2.005477982606553	-1.770787363059768	-1.77078736305978	-0.2500047834618323	0.03838437575787625	-0.6604743695129714	0.171566307500116	-1.706320321339856e-07	-1.526251377827503e-06	1.607514276123276e-07	-1.827758419489991e-07	-1.96585155634502e-07	-7.663775294416263e-07	-1.743079799468124e-07
0.51	-0.07719084434741641	-0.02229005828581689	0.7758156868171431	1.005685354968769	-0.3222432198598831	-0.05961171704056647	-0.804071173217071	1.101218190448931	1.101218190448894	-0.04065268335952976	-0.1745325038070207	0.2557141605101121	0.06460342413281622	-0.06246131950960207	-0.08825611630871404	-0.5360495425885466	1.733200108881188	-0.02358993908661199	0.5233585332069949	-0.8074259643302316	2.172572498744803	2.172572498744884	0.3121684482864537	1.092701612558675e-05	0.6551119834153695	0.2458358310820916	-0.2683365987803413	0.02395227931365987	-0.008375288609077975	-0.2858317865930311	0.03407615940738536	0.04470805812008591	0.3298782968816143	-32.17976173240504	-14.69446309803295	2.930339815985787	-7.244805661135871	-700.788450809154	-74.41279010818462	-3.150831024725218	0.3730451491954428	0.6845097019570938	-0.2529062119418501	-1.739280406707963	0.1232725371838621	-0.7719412198758245	2.047928231731076	-1.957696788713053	-1.957696788740172	-0.2679472340876519	-0.01508769977546029	-0.7317938020677408	0.1082750813962674	-1.911714411470665e-07	-1.365148781685982e-06	4.637783444184202e-07	-1.405829604621494e-07	-2.122499664424367e-07	-6.858987370537207e-07	-1.921678104023619e-07
0.52	-0.0777966053669468	-0.02313851367857674	0.7704437824351286	1.022928179091639	-0.3224727209799566	-0.05441693458310133	-0.8120422713300205	1.122843199552647	1.122843199552613	-0.0375441138951979	-0.1745324543552854	0.2622278577130914	0.06706717871655517	-0.05867003432654228	-0.08144650876512041	-0.5382070911174505	1.715133668761165	-0.02232211329711853	0.5155398324951271	-0.7867200271139743	2.152131677435808	2.152131677435708	0.3095464021090485	-1.131448461625222e-05	0.6475269389337521	0.2468599651684469	-0.2747505290271497	0.02471377011349728	-0.008340275945002125	-0.290775677768796	0.03081904596755823	0.04433351786894807	0.336464228321847	-33.56826920582269	-14.15257027001757	2.688474201231985	-6.614544284127075	-706.3772483772058	-74.1087138998767	-2.579457121519604	0.3850664811553708	0.6773870551358399	-0.1786367240175538	-1.872028999246355	0.1372865967941243	-0.783871791378272	2.093835357653409	-2.127639724829772	-2.127639724829727	-0.2505764647295577	0.02647923461427286	-0.7816354661822547	0.1068653119912063	-1.724346287212052e-07	-1.173355888125935e-06	4.9429022360085e-07	-1.203464829451073e-07	-1.954812833474801e-07	-5.904940145960331e-07	-1.749379658090515e-07
0.53	-0.07836397971253492	-0.02391923371668846	0.7650540536858095	1.039983566068147	-0.3226898233695683	-0.04930149479656061	-0.8198041562297311	1.144255035004308	1.144255035004279	-0.03446212186001953	-0.1745324735094551	0.268662853614976	0.06953965278559326	-0.05479322647156231	-0.07470946172619961	-0.5396095171752041	1.69571392629133	-0.02111391211478567	0.5075131411551951	-0.7655957679996488	2.129945005688437	2.12994500568855	0.3068257996617682	3.305632947024109e-06	0.6393852565724626	0.2475758113428451	-0.2806928795241538	0.02506087520044851	-0.008298852618322946	-0.2963583461585802	0.02822541199012969	0.04395539250315418	0.3427087257154373	-34.75102577537952	-13.64317754636784	2.449541625354087	-6.107288744125227	-712.028797829422	-73.94555222430191	-2.064982860903749	0.3907167315728681	0.6700471545731359	-0.1017116456664761	-2.011430518625045	0.110244285895538	-0.8174898152060806	2.130898912619136	-2.307708803299063	-2.307708803267126	-0.2868919463650327	-0.01160105234499623	-0.843531008324327	0.04519975468096997	-1.536699970753049e-07	-1.022781453458329e-06	4.859538501798907e-07	-1.075087156734966e-07	-1.763306690865636e-07	-5.154893124033021e-07	-1.580070922576535e-07
0.54	-0.07889224022079321	-0.02463294655915037	0.7596541674561103	1.056837858890402	-0.322895312265967	-0.04426740632540094	-0.827352962993439	1.165436298157774	1.165436298157751	-0.0314081538116439	-0.1745324573529668	0.2750138134158034	0.07201753641327885	-0.05084726686044008	-0.06804506963515791	-0.5402385871934298	1.67491483791058	-0.01999941465474714	0.4992695694190474	-0.7441043999134436	2.106017217796736	2.106017217797062	0.3039416047489797	-4.25235638394057e-06	0.6307197187222913	0.2479418768979175	-0.286635230021152	0.0254079802874031	-0.008257429291654772	-0.3019410145483635	0.02563177801270156	0.04357726713736514	0.3489532231090317	-35.93541720187937	-13.13778518094001	2.216143136481874	-5.650389428752328	-717.7035635644266	-73.82094165973361	-1.607642448833435	0.3988968323837734	0.6628560655600515	-0.0239655161119406	-2.147898181429332	0.1185458523352369	-0.8272478706213674	2.167257152029368	-2.475862953695771	-2.475862953695797	-0.2832949578312251	0.02204361323540401	-0.8864065639585517	0.03690918812603305	-1.34874586717872e-07	-9.178104201185298e-07	4.34636431325394e-07	-1.028567554819376e-07	-1.545447267271382e-07	-4.630548453973315e-07	-1.414069951781588e-07
0.55	-0.07938074785357442	-0.02528045245151237	0.7542518473105975	1.073477491736075	-0.3230899950607813	-0.03931678205195593	-0.8346851578320791	1.186369828957957	1.186369828957941	-0.02838360821180901	-0.1745324357615635	0.2812756416898944	0.07449750516513533	-0.04684548205700256	-0.0614751353098717	-0.5400965103157248	1.65279532679128	-0.01894979329738514	0.4908158852955609	-0.7222898730584605	2.08041677255303	2.080416772553019	0.3009513869367824	4.618020877251066e-06	0.621568333119503	0.2479964120184214	-0.2923387762149567	0.02582153370003479	-0.008232197877658139	-0.3074686096723194	0.02286431225579937	0.04305070232796732	0.3549077279536477	-37.1807434671115	-12.54611367534722	1.956261895731197	-5.032175045834429	-723.2143557350585	-73.5446583848145	-1.207841631731621	0.4021254363871513	0.6511880813445112	0.05260549643920044	-2.276449323058167	0.09626000443018938	-0.8604785256422786	2.195254665670299	-2.642934292224384	-2.642934292274975	-0.3094324540008863	-0.01022887896021081	-0.941183922220405	-0.0185042310444524	-1.170464933579318e-07	-8.131043053078806e-07	3.896415023546529e-07	-9.706533137111373e-08	-1.350388963430094e-07	-4.114489804629791e-07	-1.253862250219765e-07
0.5600000000000001	-0.0798289764119082	-0.02586283380755519	0.7488548101752069	1.089889435121381	-0.3232745636966218	-0.0344519045882352	-0.8417978665594816	1.207039195509198	1.207039195509188	-0.02538947424231552	-0.1745324329921601	0.2874436202352011	0.07697637328718562	-0.04279145197102958	-0.05502016237132087	-0.5391819851689081	1.629376945836867	-0.01797658286028202	0.4821202074748745	-0.7002071776659778	2.053184368008666	2.053184368008317	0.2978592786811108	-8.016759129289874e-06	0.6119497729654568	0.2477217509366454	-0.2980423224087569	0.0262350871126628	-0.008206966463662431	-0.3129962047962745	0.02009684649889579	0.04252413751856405	0.3608622327982677	-38.42935055190458	-11.9572573649891	1.700701122341717	-4.456448095080417	-728.7641646639938	-73.30233512852705	-0.8660920809519478	0.4093458888908215	0.6398637882130074	0.1305241377103754	-2.407672148452032	0.1032636682834464	-0.8756466100613796	2.220890859529282	-2.802254813827729	-2.802254813827739	-0.303673046526113	0.01774258178183716	-0.9798414742100522	-0.02893005232994041	-1.003791803949828e-07	-7.087160927322116e-07	3.522335612444184e-07	-8.990655055717218e-08	-1.182692003292367e-07	-3.608374380145683e-07	-1.100606471737689e-07
0.5700000000000001	-0.08023647771294889	-0.02638128729135432	0.7434707755932055	1.106060856951483	-0.323449697526224	-0.02967497546781572	-0.8486885351308079	1.227428259007526	1.227428259007548	-0.02242679902020442	-0.1745324426707842	0.2935132095556051	0.07945096225149301	-0.03870493496605892	-0.04869396196144603	-0.5374957490377652	1.604698345075481	-0.01706426088785249	0.4732365130114127	-0.677897537010251	2.024368771208258	2.024368771208045	0.2946462828890378	2.581991608384162e-06	0.6018997273071532	0.2471382263061068	-0.3033878844049264	0.02653064534866895	-0.008184405570803377	-0.3186391849477426	0.01741404381519909	0.04194179310978843	0.3664599663348902	-39.64924852540052	-11.34519217249547	1.436859407501157	-3.817823317115656	-734.1419553820477	-73.0452428104085	-0.5829249484962091	0.4088769052955001	0.6254668600744616	0.2070289232107149	-2.529324251111657	0.0830870049299092	-0.8992040444467565	2.240350606964113	-2.960125902136001	-2.960125902115593	-0.3346321120303065	-0.007761541133697141	-1.027869546187379	-0.08167157305199015	-8.419285174923495e-08	-6.123327302637967e-07	3.087469090182276e-07	-8.345702534094586e-08	-1.018333119061875e-07	-3.155644169710679e-07	-9.487199051440141e-08
0.58	-0.0806029993841402	-0.02683718503251478	0.7381074744869942	1.121979218731748	-0.3236161340274593	-0.02498777792801775	-0.8553552373079024	1.247521383780053	1.247521383780108	-0.01949715760932703	-0.1745324423744646	0.2994802417325172	0.08191799438856795	-0.03459552600127947	-0.04250901384358755	-0.5350352900108369	1.578764935868902	-0.01623711718714069	0.4641738913496269	-0.655413898819737	1.993996622848303	1.993996622848226	0.291252516437674	-6.021771790740224e-06	0.5914383442669749	0.2462103854901231	-0.3087334464010837	0.026826203584694	-0.008161844678062569	-0.3242821650992124	0.01473124113150683	0.04135944870104261	0.3720576998715211	-40.87361893585172	-10.73551261157461	1.177017185044569	-3.216362069947573	-739.5723737202292	-72.81870188327781	-0.3588772164588845	0.4139242808525349	0.6116133298097605	0.2853687168674856	-2.658633837490711	0.08622801393988931	-0.9114320497261721	2.255690366486724	-3.113565125737168	-3.113565125737166	-0.3398271783842757	0.01390207895451044	-1.062108950584953	-0.09779328941891814	-6.86329212840281e-08	-5.263742888652948e-07	2.573437958038156e-07	-7.793118183337198e-08	-8.583214964780167e-08	-2.772438889200089e-07	-7.986164982189566e-08
